<?xml version="1.0" encoding="UTF-8"?>
<svg version="1.1" xmlns="http://www.w3.org/2000/svg" width="512" height="512">
<path d="M0 0 C1.96484375 1.48828125 1.96484375 1.48828125 3.9375 3.3125 C6.24937128 5.42127231 8.51712973 7.39862084 11 9.3125 C11.66 9.869375 12.32 10.42625 13 11 C13 11.66 13 12.32 13 13 C13.59296875 13.26425781 14.1859375 13.52851562 14.796875 13.80078125 C17.08029054 15.04370425 18.47426723 16.30401646 20.25 18.1875 C22.62465128 20.69734183 25.11480439 22.9956296 27.72265625 25.2578125 C31.98468615 28.95848031 36.09347631 32.8028406 40.1875 36.6875 C46.89880842 43.02970111 53.6505677 49.32383634 60.44824219 55.57324219 C68.4654859 62.94466639 76.45199173 70.34797386 84.40917969 77.78417969 C90.58155346 83.54951387 96.78760693 89.27785743 103 95 C110.51978893 101.92636539 118.01586305 108.8767116 125.48388672 115.85888672 C129.30386523 119.42689036 133.14185754 122.97329528 137 126.5 C142.15250878 131.20987715 147.25967748 135.96641765 152.35888672 140.73388672 C158.54698349 146.51713995 164.77016044 152.26178773 171 158 C178.4953927 164.90389439 185.96879128 171.83010524 193.41357422 178.78857422 C197.42934917 182.54000399 201.45856173 186.27624569 205.5 190 C207.09264117 191.47016845 208.6850146 192.94062643 210.27734375 194.41113281 C211.49762724 195.53664372 212.7191014 196.66086431 213.94140625 197.78417969 C215.96421425 199.64426662 217.98240232 201.50926451 220 203.375 C220.62326172 203.94605469 221.24652344 204.51710938 221.88867188 205.10546875 C225.58160816 208.52975494 228.85886585 212.06168408 232 216 C230.75023244 219.65316671 230.32901247 220.78065836 227 223 C225.68 223 224.36 223 223 223 C221.67730601 234.3373771 220.79203986 245.57917111 220.75 257 C220.74097656 258.01964844 220.73195313 259.03929687 220.72265625 260.08984375 C220.72652344 261.05019531 220.73039062 262.01054687 220.734375 263 C220.73775879 264.2684375 220.73775879 264.2684375 220.74121094 265.5625 C221.19638225 269.84969846 222.67818556 272.96481752 225.6875 276 C228 279 228 279 228.1875 281.6875 C226.16940712 285.61747034 222.12603271 286.61492885 218.0930481 287.99409485 C217.06992523 288.28777451 216.04680237 288.58145416 214.99267578 288.8840332 C213.80309265 289.22862579 212.61350952 289.57321838 211.38787842 289.92825317 C210.07371557 290.30251977 208.75952593 290.6766923 207.4453125 291.05078125 C206.03657424 291.45650554 204.62798909 291.86276177 203.21954346 292.26950073 C200.1524454 293.15400181 197.08430563 294.03476072 194.01531982 294.91268921 C189.02761706 296.33951571 184.04223853 297.77434901 179.05712891 299.21020508 C172.6716488 301.04874845 166.28552768 302.88503955 159.89869499 304.71887875 C146.30920485 308.62090388 132.72436374 312.53894309 119.140625 316.4609375 C114.69426178 317.74465393 110.24789134 319.02834534 105.80151367 320.31201172 C104.69508105 320.63144556 103.58864843 320.9508794 102.44868755 321.27999306 C89.15907169 325.11643561 75.86768164 328.9467229 62.57645607 332.77758408 C49.24109407 336.6213608 35.90752261 340.47123662 22.5764389 344.32982445 C17.94447438 345.67010941 13.31198887 347.00859227 8.67944336 348.34686756 C4.53776282 349.54353755 0.39691828 350.74304009 -3.74325275 351.94492149 C-6.81110807 352.83454034 -9.880262 353.71965838 -12.94921875 354.60546875 C-13.995298 354.91025146 -15.04137726 355.21503418 -16.11915588 355.52905273 C-21.40046013 357.0486993 -26.70173944 358.47746706 -32.03491211 359.80419922 C-33.09222031 360.06909149 -34.1495285 360.33398376 -35.23887634 360.60690308 C-38 361 -38 361 -41.4921875 359.52734375 C-42.31976563 358.69332031 -43.14734375 357.85929687 -44 357 C-44.84820312 356.15566406 -45.69640625 355.31132812 -46.5703125 354.44140625 C-47.41335937 353.49136719 -48.25640625 352.54132813 -49.125 351.5625 C-50.09209859 350.48406164 -51.05955872 349.4059474 -52.02734375 348.328125 C-52.51960449 347.77576172 -53.01186523 347.22339844 -53.51904297 346.65429688 C-55.88147208 344.01535529 -58.2832908 341.41334351 -60.6875 338.8125 C-61.17557129 338.28342041 -61.66364258 337.75434082 -62.16650391 337.20922852 C-67.09859101 331.87255 -72.08674659 326.58896147 -77.07250977 321.30249023 C-81.59214029 316.50655513 -86.08021056 311.68352787 -90.54272461 306.83447266 C-94.53337725 302.4997395 -98.54389662 298.18383009 -102.5625 293.875 C-103.15885254 293.23481934 -103.75520508 292.59463867 -104.36962891 291.93505859 C-104.92956543 291.33516113 -105.48950195 290.73526367 -106.06640625 290.1171875 C-106.56084229 289.58722168 -107.05527832 289.05725586 -107.56469727 288.51123047 C-108.57104003 287.45165201 -109.61463764 286.42681363 -110.68334961 285.43017578 C-112 284 -112 284 -112 282 C-112.66 282 -113.32 282 -114 282 C-115.45410156 280.54003906 -115.45410156 280.54003906 -117.140625 278.515625 C-120.87572952 274.1238837 -124.78174531 269.93077076 -128.75 265.75 C-134.23902417 259.9440111 -139.67841348 254.10201943 -145.0546875 248.19140625 C-147.40366734 245.62728464 -149.7951602 243.10609793 -152.1953125 240.58984375 C-152.92685547 239.82091797 -153.65839844 239.05199219 -154.41210938 238.25976562 C-155.86504387 236.73501796 -157.32195833 235.21405095 -158.78320312 233.69726562 C-159.44513672 233.00181641 -160.10707031 232.30636719 -160.7890625 231.58984375 C-161.68165771 230.65966431 -161.68165771 230.65966431 -162.59228516 229.71069336 C-164 228 -164 228 -165 225 C-165.66 225 -166.32 225 -167 225 C-168.48046875 223.49609375 -168.48046875 223.49609375 -170.1875 221.4375 C-172.53279758 218.6746132 -174.90829405 216.03320243 -177.5 213.5 C-179.86223463 211.1830456 -182.08190771 208.80213903 -184.23828125 206.29296875 C-187.94715974 202.02751351 -191.79731791 197.91229268 -195.6875 193.8125 C-200.52742457 188.69148278 -205.35471945 183.56100543 -210.125 178.375 C-214.39689357 173.73132171 -218.69108831 169.10935603 -223 164.5 C-233.09314945 153.69923827 -233.09314945 153.69923827 -237.64990234 148.71191406 C-240.09474993 146.03866082 -242.56809359 143.41034656 -245.12109375 140.83984375 C-250.52633079 135.33177326 -254.55682203 131.01875143 -255 123 C-255.103125 122.16082031 -255.20625 121.32164062 -255.3125 120.45703125 C-255.63801363 117.63726939 -255.84045212 114.83387425 -256 112 C-256.08121094 110.58847656 -256.08121094 110.58847656 -256.1640625 109.1484375 C-256.62275915 93.01065541 -254.95750819 69.35543597 -243.79745674 56.58828354 C-241.81998426 54.84093301 -240.33904496 54.19981918 -237.83053589 53.42730713 C-237.03360195 53.18162239 -236.23666801 52.93593765 -235.41558456 52.68280792 C-231.78485192 51.65651679 -228.13978208 50.75136398 -224.46142578 49.91308594 C-223.65148037 49.72478462 -222.84153496 49.53648331 -222.00704575 49.34247589 C-219.32073074 48.71901633 -216.63304107 48.10170968 -213.9453125 47.484375 C-212.00879072 47.03617519 -210.0723612 46.58757656 -208.13601685 46.13861084 C-202.8936556 44.92418578 -197.65010138 43.71498673 -192.40632629 42.50668335 C-186.89092441 41.2348157 -181.37664743 39.95809108 -175.86230469 38.68164062 C-168.96824366 37.08609738 -162.07408342 35.49098874 -155.17944336 33.89794922 C-138.95245083 30.14843905 -122.72899773 26.38392555 -106.5078125 22.609375 C-104.26893314 22.08851242 -102.03005173 21.56765869 -99.79116821 21.04681396 C-91.19565536 19.04708076 -82.60019689 17.04711429 -74.00494385 15.04626465 C-63.53965456 12.61047807 -53.07335546 10.17921612 -42.60399818 7.76096725 C-37.65007458 6.61598408 -32.69846709 5.4616777 -27.74881363 4.29837799 C-24.81678186 3.61089734 -21.88311106 2.93063543 -18.94893646 2.25236511 C-16.98706671 1.79640139 -15.02733264 1.33127856 -13.06768799 0.86584473 C-11.917099 0.6013855 -10.76651001 0.33692627 -9.58105469 0.06445312 C-8.59127625 -0.16721558 -7.6014978 -0.39888428 -6.58172607 -0.63757324 C-3.97148125 -1.00400351 -2.45078009 -0.91116909 0 0 Z M-14.28393555 12.60693359 C-15.03336363 12.78028386 -15.78279171 12.95363413 -16.55492973 13.13223743 C-19.08293109 13.71783664 -21.60980481 14.30816504 -24.13671875 14.8984375 C-25.9567152 15.32103274 -27.77678031 15.74333235 -29.59690857 16.1653595 C-34.58245193 17.32220041 -39.56704238 18.48310122 -44.55149078 19.64464951 C-49.80769444 20.86877567 -55.0647735 22.08913019 -60.32177734 23.30981445 C-69.37396736 25.41220662 -78.42564957 27.51677318 -87.47705078 29.62255859 C-102.57595088 33.13504402 -117.67653356 36.64026813 -132.77734375 40.14453125 C-137.88387251 41.32958093 -142.99039847 42.51464271 -148.09692383 43.69970703 C-149.34611194 43.98959881 -150.59530005 44.27949059 -151.88234234 44.57816696 C-160.53589729 46.58641905 -169.1892703 48.59545359 -177.8425293 50.60498047 C-179.01303927 50.87679862 -180.18354925 51.14861677 -181.38952923 51.42867184 C-186.88564308 52.70500567 -192.38173403 53.98143798 -197.87779236 55.25801086 C-207.58363537 57.51213411 -217.28988279 59.76434446 -227 62 C-225.78269093 65.65192722 -223.70801896 67.41716927 -221 70 C-219.57907071 71.39149384 -218.16261457 72.78756599 -216.75 74.1875 C-215.72132813 75.19876953 -215.72132813 75.19876953 -214.671875 76.23046875 C-213 78 -213 78 -212 80 C-211.34 80 -210.68 80 -210 80 C-209.76667969 80.56203125 -209.53335938 81.1240625 -209.29296875 81.703125 C-207.68062924 84.56734142 -205.6806438 86.47252021 -203.3125 88.75 C-197.98625984 93.9687944 -193.10601191 99.43119139 -188.375 105.1875 C-186.03604734 107.95731236 -183.59295012 110.46735104 -181 113 C-179.58030635 114.39275449 -178.16382884 115.78879233 -176.75 117.1875 C-176.06421875 117.86167969 -175.3784375 118.53585938 -174.671875 119.23046875 C-173 121 -173 121 -172 123 C-171.34 123 -170.68 123 -170 123 C-169.75378906 123.57492188 -169.50757813 124.14984375 -169.25390625 124.7421875 C-167.80206947 127.35639827 -166.09712451 129.06336208 -163.9375 131.125 C-160.09722222 134.80555556 -160.09722222 134.80555556 -159 137 C-158.34 137 -157.68 137 -157 137 C-156.75636719 137.57234375 -156.51273437 138.1446875 -156.26171875 138.734375 C-154.77482702 141.40433538 -153.01916092 143.13829007 -150.8125 145.25 C-147.24380987 148.73304157 -143.9241809 152.31881213 -140.6796875 156.1015625 C-139.01795424 157.97970753 -137.28874475 159.74305516 -135.5 161.5 C-131.07867765 165.85223918 -127.07012703 170.54356124 -123.07421875 175.28515625 C-122.14029297 176.38150391 -122.14029297 176.38150391 -121.1875 177.5 C-120.62417969 178.1703125 -120.06085938 178.840625 -119.48046875 179.53125 C-118.11093455 181.23476384 -118.11093455 181.23476384 -116 181 C-115.76667969 181.56203125 -115.53335938 182.1240625 -115.29296875 182.703125 C-113.68062924 185.56734142 -111.6806438 187.47252021 -109.3125 189.75 C-105.566925 193.4148514 -102.04938216 197.15774778 -98.64453125 201.13671875 C-96.48615243 203.58219784 -94.16998337 205.84265038 -91.84277344 208.12597656 C-90.06615723 209.93272087 -88.40539979 211.79371861 -86.75390625 213.71484375 C-83.08595836 217.93293539 -79.2832492 222.00678311 -75.4375 226.0625 C-74.03625558 227.54668361 -72.63521828 229.03106278 -71.234375 230.515625 C-70.53248047 231.25876953 -69.83058594 232.00191406 -69.10742188 232.76757812 C-65.79465851 236.27683533 -62.4879108 239.79162439 -59.1875 243.3125 C-58.60734131 243.92810791 -58.02718262 244.54371582 -57.42944336 245.17797852 C-55.22677079 247.53049723 -53.13850898 249.80989565 -51.23828125 252.41796875 C-50.62533203 253.20107422 -50.62533203 253.20107422 -50 254 C-49.34 254 -48.68 254 -48 254 C-47.76667969 254.56203125 -47.53335938 255.1240625 -47.29296875 255.703125 C-45.68062924 258.56734142 -43.6806438 260.47252021 -41.3125 262.75 C-37.51180034 266.46831455 -33.91461762 270.25773504 -30.47265625 274.30859375 C-29.98667969 274.86675781 -29.50070313 275.42492187 -29 276 C-28.60683594 276.58910156 -28.21367187 277.17820312 -27.80859375 277.78515625 C-24.7630018 279.83089944 -21.43128134 278.6580101 -18 278 C-13.00558258 276.80366007 -8.05722252 275.44927733 -3.10546875 274.08984375 C-1.62069952 273.68653408 -0.13579727 273.28371388 1.34922791 272.88134766 C5.34055624 271.79849344 9.33005598 270.70904043 13.31925964 269.61838913 C17.5213202 268.47083136 21.72508735 267.3295604 25.92871094 266.18774414 C32.74641781 264.33516771 39.56323947 262.47937121 46.37939453 260.62109375 C54.77044582 258.33367642 63.16374797 256.05470287 71.55859375 253.78125 C72.75220016 253.45798233 73.94580658 253.13471466 75.17558289 252.801651 C77.53519346 252.16260516 79.89480747 251.52357198 82.25442505 250.884552 C88.14668227 249.2881697 94.03818058 247.68899247 99.9296875 246.08984375 C108.67809507 243.71530192 117.42676072 241.34171732 126.17583466 238.96963215 C132.43505035 237.27260223 138.69414563 235.57512869 144.95316315 233.87736797 C148.7276062 232.8535667 152.50209878 231.82994903 156.2767334 230.80685425 C175.53171794 225.58766496 194.77357608 220.32353909 214 215 C212.51248672 211.87562705 211.0561813 209.85699558 208.5078125 207.49609375 C207.80881836 206.84350586 207.10982422 206.19091797 206.38964844 205.51855469 C205.64231445 204.83180664 204.89498047 204.14505859 204.125 203.4375 C202.97306152 202.36677246 202.97306152 202.36677246 201.79785156 201.27441406 C199.53762364 199.17664298 197.27020837 197.08696054 195 195 C194.41766602 194.4632666 193.83533203 193.9265332 193.23535156 193.37353516 C190.79141496 191.12174149 188.34126044 188.87694848 185.88671875 186.63671875 C182.76898744 183.78899394 179.66401848 180.92785289 176.5625 178.0625 C176.02206055 177.56331055 175.48162109 177.06412109 174.92480469 176.54980469 C173.83018522 175.53863447 172.73562157 174.52740383 171.64111328 173.51611328 C169.46909558 171.50953341 167.29623927 169.50386308 165.12329102 167.49829102 C164.03906892 166.49755842 162.95492206 165.49674431 161.87084961 164.49584961 C159.18851745 162.01938674 156.50534524 159.54384728 153.8203125 157.0703125 C147.36221821 151.11865783 140.9313226 145.13896718 134.51611328 139.14111328 C129.73691018 134.67715779 124.92098907 130.2557427 120.09375 125.84375 C115.88969122 121.99002945 111.73143815 118.08718356 107.56640625 114.19140625 C103.7300808 110.60612869 99.8758871 107.04247746 96 103.5 C90.82119269 98.76668149 85.69029399 93.98405276 80.56640625 89.19140625 C76.7300808 85.60612869 72.8758871 82.04247746 69 78.5 C63.82119269 73.76668149 58.69029399 68.98405276 53.56640625 64.19140625 C49.7300808 60.60612869 45.8758871 57.04247746 42 53.5 C37.47263764 49.36208816 32.97940488 45.18975405 28.5 41 C23.02931626 35.88378223 17.53471012 30.79652712 11.99609375 25.75390625 C9.79715685 23.74502822 7.6302197 21.70557514 5.47265625 19.65234375 C4.88307129 19.09562988 4.29348633 18.53891602 3.68603516 17.96533203 C2.54325746 16.88510235 1.40594492 15.7990537 0.27490234 14.70654297 C-4.79155518 9.93820563 -7.94608944 11.11756059 -14.28393555 12.60693359 Z M-238 68 C-245.13331626 83.78744106 -249.17320286 109.35682754 -243 126 C-240.97303358 129.01638274 -238.57536474 131.4514062 -236 134 C-234.88527849 135.32452171 -233.7803779 136.65739816 -232.6875 138 C-231.34200959 139.71470827 -231.34200959 139.71470827 -230 141 C-229.34 141 -228.68 141 -228 141 C-227.77183594 141.55558594 -227.54367188 142.11117187 -227.30859375 142.68359375 C-225.63141689 145.65244712 -223.50336096 147.68615519 -221.0625 150.0625 C-220.18722656 150.91972656 -219.31195313 151.77695313 -218.41015625 152.66015625 C-217.61480469 153.43230469 -216.81945312 154.20445312 -216 155 C-214.99784715 155.99784251 -213.99670513 156.99671595 -213 158 C-212.76925781 156.92363281 -212.53851563 155.84726563 -212.30078125 154.73828125 C-209.32029079 141.22579164 -204.803785 129.13511439 -198.35546875 116.8984375 C-196.78818976 114.0803675 -196.78818976 114.0803675 -197 111 C-198.30344828 108.78963709 -198.30344828 108.78963709 -200 107 C-200.66 107 -201.32 107 -202 107 C-202.22300781 106.44828125 -202.44601563 105.8965625 -202.67578125 105.328125 C-204.41554097 102.2694324 -206.65764482 100.1926188 -209.1875 97.75 C-214.32977189 92.72095706 -219.11336096 87.50138624 -223.6875 81.953125 C-224.491875 80.98632812 -224.491875 80.98632812 -225.3125 80 C-225.78300781 79.4225 -226.25351563 78.845 -226.73828125 78.25 C-227.94078727 76.76539999 -227.94078727 76.76539999 -230 77 C-230.20625 76.443125 -230.4125 75.88625 -230.625 75.3125 C-232.55000774 72.07498698 -235.03850902 70.31768859 -238 68 Z M-189 121 C-196.30636485 134.63371308 -203.25536056 149.06043444 -203.0625 164.875 C-203.05347656 165.84179688 -203.04445312 166.80859375 -203.03515625 167.8046875 C-203.02355469 168.52914062 -203.01195312 169.25359375 -203 170 C-202.34 170 -201.68 170 -201 170 C-200.79375 170.556875 -200.5875 171.11375 -200.375 171.6875 C-199.02778647 173.9532682 -197.93146166 175.01384533 -195.9140625 176.64453125 C-194.47160156 177.81048828 -194.47160156 177.81048828 -193 179 C-192.79246094 177.9584375 -192.58492187 176.916875 -192.37109375 175.84375 C-189.47908369 162.10589441 -184.82669285 149.69010064 -177.06640625 137.91796875 C-175.75702742 135.92875521 -175.75702742 135.92875521 -176 133 C-177.92757942 130.82820237 -179.85289888 128.82138349 -181.9375 126.8125 C-182.50146484 126.25369141 -183.06542969 125.69488281 -183.64648438 125.11914062 C-185.95553561 122.30022556 -185.95553561 122.30022556 -189 121 Z M-168 143 C-175.66617636 153.82283721 -181.02309983 166.90514843 -183 180 C-183.16113281 180.96808594 -183.32226562 181.93617188 -183.48828125 182.93359375 C-183.88735175 187.22806883 -183.83886422 189.86114461 -181.23046875 193.40234375 C-178.90690519 195.71799057 -176.47951475 197.85349451 -174 200 C-172.91054072 201.18408368 -171.84648204 202.39217526 -170.8125 203.625 C-166.71512377 208.40687909 -162.38404203 212.96765187 -158.06176758 217.54541016 C-155.33369291 220.44671397 -152.68491916 223.35120903 -150.1953125 226.4609375 C-149.47085938 227.29882812 -148.74640625 228.13671875 -148 229 C-147.34 229 -146.68 229 -146 229 C-145.75636719 229.57234375 -145.51273438 230.1446875 -145.26171875 230.734375 C-143.77482702 233.40433538 -142.01916092 235.13829007 -139.8125 237.25 C-136.33704559 240.64797612 -133.07059233 244.12206445 -129.90234375 247.8046875 C-127.5093426 250.56622065 -125.07339482 253.2876777 -122.625 256 C-121.77164063 256.94875 -120.91828125 257.8975 -120.0390625 258.875 C-119.02972656 259.926875 -119.02972656 259.926875 -118 261 C-117.67 261 -117.34 261 -117 261 C-116.85304688 259.98164063 -116.70609375 258.96328125 -116.5546875 257.9140625 C-114.3387579 243.56279069 -110.88306876 229.48120912 -102.90625 217.1640625 C-101.72456686 215.04696979 -101.72456686 215.04696979 -102.75244141 213.0793457 C-104.02020016 210.96633175 -105.35415787 209.34561257 -107.0546875 207.56640625 C-107.66320557 206.92437256 -108.27172363 206.28233887 -108.89868164 205.62084961 C-109.5508667 204.94159424 -110.20305176 204.26233887 -110.875 203.5625 C-112.24653095 202.11760238 -113.61761949 200.67228469 -114.98828125 199.2265625 C-115.66971191 198.51016602 -116.35114258 197.79376953 -117.05322266 197.05566406 C-119.75024967 194.20778753 -122.40965796 191.3264826 -125.0625 188.4375 C-128.2752933 184.94272843 -131.5005683 181.46077685 -134.75 178 C-135.70120728 176.98595093 -135.70120728 176.98595093 -136.67163086 175.95141602 C-137.90252658 174.64042069 -139.13502995 173.33093233 -140.36938477 172.02319336 C-142.64351126 169.59987946 -144.81499799 167.25331044 -146.77734375 164.56640625 C-147.18082031 164.04949219 -147.58429688 163.53257812 -148 163 C-148.66 163 -149.32 163 -150 163 C-150.25394531 162.41734375 -150.50789063 161.8346875 -150.76953125 161.234375 C-152.13320333 158.75811967 -153.64225203 157.19479374 -155.6875 155.25 C-159.22434867 151.81641699 -162.47351901 148.23410049 -165.65234375 144.46875 C-166.09707031 143.9840625 -166.54179687 143.499375 -167 143 C-167.33 143 -167.66 143 -168 143 Z M-95 223 C-101.90484135 237.93462876 -109.77260858 255.14075106 -107 272 C-104.26147969 276.70965305 -100.35382491 279.83095488 -96 283 C-95.65388672 281.20369141 -95.65388672 281.20369141 -95.30078125 279.37109375 C-92.57019337 265.57863524 -89.57532684 252.35354131 -82.0390625 240.26953125 C-80.77857528 238.05929235 -80.77857528 238.05929235 -81.3359375 235.69921875 C-81.55507812 235.13847656 -81.77421875 234.57773437 -82 234 C-82.66 234 -83.32 234 -84 234 C-84.2578125 233.41734375 -84.515625 232.8346875 -84.78125 232.234375 C-86.09834017 229.8197097 -87.55088384 228.18259823 -89.5 226.25 C-90.1084375 225.63640625 -90.716875 225.0228125 -91.34375 224.390625 C-92.89484277 222.78565912 -92.89484277 222.78565912 -95 223 Z M200.58105469 228.93334961 C199.44262635 229.24408275 199.44262635 229.24408275 198.28119946 229.56109333 C195.74376855 230.25461644 193.20785013 230.95351784 190.671875 231.65234375 C188.87677156 232.14397434 187.08156783 232.63523888 185.28627014 233.12615967 C181.44764271 234.17651963 177.60964404 235.2291357 173.77212524 236.28353882 C167.71201625 237.94851419 161.65050642 239.60834359 155.58862305 241.2668457 C154.5805683 241.5426456 153.57251356 241.81844549 152.53391171 242.10260296 C150.49793416 242.6596115 148.46194981 243.21659516 146.42595863 243.77355385 C143.36422006 244.61125566 140.30260724 245.44941586 137.24101257 246.28764343 C121.99537101 250.46067633 106.73996074 254.59604507 91.47610474 258.7019043 C68.55915344 264.86710233 45.64893863 271.05755232 22.74795055 277.28178883 C18.36506425 278.47298594 13.98181897 279.66281511 9.5975647 280.84896851 C5.50134533 281.95727399 1.40624865 283.06963338 -2.6880188 284.18512726 C-4.2028661 284.59711293 -5.71810901 285.00764703 -7.23376465 285.41664886 C-9.31603617 285.97882518 -11.39681025 286.54624268 -13.47729492 287.11499023 C-14.6462883 287.43233627 -15.81528168 287.74968231 -17.0196991 288.0766449 C-22.0729326 289.53622396 -22.0729326 289.53622396 -25.34375 293.3359375 C-32.22005348 311.4094649 -33.61087841 328.77271807 -33 348 C-23.72229526 346.35851106 -14.77681072 343.73693893 -5.74609375 341.1015625 C-4.00851051 340.59785827 -2.27081607 340.09453751 -0.53302002 339.59156799 C3.20447821 338.50900092 6.94122498 337.42389093 10.67739868 336.33676147 C16.64272217 334.60105113 22.60966718 332.87096399 28.5769043 331.1418457 C34.86880951 329.31838384 41.16060887 327.49456108 47.45185852 325.6688385 C62.61548922 321.26852036 77.782908 316.88146234 92.953125 312.50390625 C94.01889708 312.19636162 95.08466915 311.88881699 96.18273735 311.57195282 C101.49610277 310.03878518 106.80953796 308.50585954 112.12301636 306.9730835 C118.11999043 305.24311218 124.11679283 303.51254653 130.11352539 301.78173828 C131.54463638 301.36870075 131.54463638 301.36870075 133.0046587 300.94731903 C137.70532478 299.59059255 142.40590742 298.23357801 147.1063385 296.8760376 C155.92080756 294.33053169 164.73593634 291.78738073 173.55323124 289.25167751 C177.76525496 288.0401376 181.97685601 286.82713247 186.18840599 285.61394691 C188.20368677 285.03384311 190.21916829 284.4544362 192.23485756 283.8757534 C195.01279223 283.07818158 197.79003711 282.27825019 200.56713867 281.4777832 C201.39593977 281.24049562 202.22474087 281.00320805 203.07865715 280.75872993 C207.1298372 279.62177453 207.1298372 279.62177453 211 278 C210.89389404 277.01229614 210.89389404 277.01229614 210.78564453 276.00463867 C210.09291249 269.08766664 209.84329013 262.26149111 209.875 255.3125 C209.87693359 254.27609375 209.87886719 253.2396875 209.88085938 252.171875 C209.92781947 243.75036383 210.30881724 235.39293349 211 227 C207.31695017 227 204.09965173 227.95781413 200.58105469 228.93334961 Z M-73 245 C-76.53861569 249.64165699 -78.36922693 254.28042137 -80.125 259.8125 C-80.37636719 260.56853516 -80.62773437 261.32457031 -80.88671875 262.10351562 C-84.27328 272.50256364 -88.19892595 285.13511745 -85 296 C-81.74514421 301.55262447 -76.81133849 305.77639166 -72.08691406 310.06201172 C-68.79106369 313.12266453 -65.7845784 316.43367878 -62.75 319.75 C-61.60637586 320.97610713 -60.46185921 322.20138247 -59.31640625 323.42578125 C-57.10111126 325.80584489 -54.90161029 328.19917109 -52.71484375 330.60546875 C-52.20276367 331.1684668 -51.69068359 331.73146484 -51.16308594 332.31152344 C-49.77658266 333.8393381 -48.39401372 335.37072057 -47.01171875 336.90234375 C-46.34785156 337.59457031 -45.68398437 338.28679687 -45 339 C-44.67 339 -44.34 339 -44 339 C-43.94839722 338.16529175 -43.94839722 338.16529175 -43.89575195 337.3137207 C-43.07214228 324.82422268 -41.42640859 312.9267355 -38.31640625 300.796875 C-38.11595703 300.00909668 -37.91550781 299.22131836 -37.70898438 298.40966797 C-37 296 -37 296 -35.94726562 293.43798828 C-34.94537286 290.87732546 -34.21905467 288.74343958 -34 286 C-35.47010616 282.78179552 -37.77677528 280.72521934 -40.375 278.375 C-41.78080321 276.99696574 -43.18572585 275.61803268 -44.58984375 274.23828125 C-45.32058105 273.5417041 -46.05131836 272.84512695 -46.80419922 272.12744141 C-50.31298069 268.72789485 -53.61712082 265.14461316 -56.9375 261.5625 C-58.17829348 260.24079911 -59.41917555 258.91918137 -60.66015625 257.59765625 C-64.07918467 253.93420531 -67.4078872 250.2021049 -70.6796875 246.40625 C-71.11539063 245.9421875 -71.55109375 245.478125 -72 245 C-72.33 245 -72.66 245 -73 245 Z " fill="#000000" transform="translate(268,76)"/>
<path d="M0 0 C0.75 1.6875 0.75 1.6875 1 4 C-0.8125 6.75 -0.8125 6.75 -3 9 C-3.66 9 -4.32 9 -5 9 C-5.26941406 9.56589844 -5.53882813 10.13179687 -5.81640625 10.71484375 C-7.05516465 13.10650601 -8.47403429 15.30213439 -9.9375 17.5625 C-15.89331989 27.52284427 -17.52178644 38.24972798 -15.53125 49.6953125 C-12.64254307 60.66552096 -5.85135907 71.1291336 3.75 77.25 C14.56249817 83.32899073 25.48477908 84.89852009 37.5625 82.5625 C38.78936523 82.34110352 38.78936523 82.34110352 40.04101562 82.11523438 C42.02942057 81.7547633 44.01504428 81.37900449 46 81 C46.66 82.32 47.32 83.64 48 85 C40.79286059 94.72630156 29.49576311 99.60118186 17.7734375 101.53125 C2.10900477 103.17620236 -11.98421045 98.87523895 -24.4609375 89.29296875 C-35.66029252 79.17908967 -41.06787344 65.83079945 -42 51 C-42.12303121 38.65074232 -38.55639177 27.74665025 -31 18 C-30.48695313 17.31164062 -29.97390625 16.62328125 -29.4453125 15.9140625 C-22.68591956 7.47290672 -11.22625029 -0.82143295 0 0 Z " fill="#000000" transform="translate(230,176)"/>
<path d="M0 0 C3.2586636 1.4264578 5.4024854 3.16704162 7.890625 5.6953125 C8.95410156 6.76845703 8.95410156 6.76845703 10.0390625 7.86328125 C10.76867187 8.60964844 11.49828125 9.35601562 12.25 10.125 C12.99507813 10.87910156 13.74015625 11.63320312 14.5078125 12.41015625 C16.3431342 14.26900772 18.1736191 16.13237005 20 18 C25.95215323 16.20490617 31.34888037 13.50180167 36.8984375 10.74609375 C37.62546875 10.39417969 38.3525 10.04226562 39.1015625 9.6796875 C40.08116943 9.19604736 40.08116943 9.19604736 41.08056641 8.70263672 C43 8 43 8 47 8 C47.87451894 10.94699105 48.19106409 12.51092338 47.05615234 15.41601562 C46.328396 16.64868164 46.328396 16.64868164 45.5859375 17.90625 C45.07289063 18.81503906 44.55984375 19.72382813 44.03125 20.66015625 C42.92509521 22.55679431 41.81308464 24.450029 40.6953125 26.33984375 C40.18484375 27.24863281 39.674375 28.15742188 39.1484375 29.09375 C38.66552246 29.91552734 38.18260742 30.73730469 37.68505859 31.58398438 C36.69847753 34.07685149 36.69847753 34.07685149 38.171875 36.609375 C39.72992913 38.6468304 41.22981361 40.4132091 43.1015625 42.15625 C43.67390625 42.70410156 44.24625 43.25195312 44.8359375 43.81640625 C46.03279549 44.94270711 47.23335428 46.06508771 48.4375 47.18359375 C51.02030255 49.66705774 52.77140657 51.37878427 54.0234375 54.78125 C54 57 54 57 52 59 C42.8929701 58.55544484 33.81942291 56.19753063 25 54 C24.77570313 54.79664063 24.55140625 55.59328125 24.3203125 56.4140625 C22.62416353 61.02076296 20.29929908 65.11719741 17.875 69.375 C17.40707031 70.20644531 16.93914062 71.03789062 16.45703125 71.89453125 C15.30929451 73.93234954 14.15686718 75.96735569 13 78 C11.35 78 9.7 78 8 78 C5.44377159 69.05320057 3.75047046 59.32171085 4 50 C3.35675781 49.95101562 2.71351563 49.90203125 2.05078125 49.8515625 C-3.29654557 49.40913032 -8.62036691 48.84678277 -13.9375 48.125 C-14.99839844 47.98320312 -16.05929688 47.84140625 -17.15234375 47.6953125 C-20.12640555 46.96913555 -21.72475747 46.00659944 -24 44 C-23.80249023 42.17480469 -23.80249023 42.17480469 -23 40 C-20.89868164 38.53613281 -20.89868164 38.53613281 -18.16015625 37.203125 C-17.17982422 36.71972656 -16.19949219 36.23632812 -15.18945312 35.73828125 C-13.64161133 35.00158203 -13.64161133 35.00158203 -12.0625 34.25 C-11.03447266 33.74339844 -10.00644531 33.23679688 -8.94726562 32.71484375 C-1.32232353 29 -1.32232353 29 1 29 C0.87882812 28.46375 0.75765625 27.9275 0.6328125 27.375 C-0.55844144 21.80359698 -1.50252036 16.20046855 -2.3125 10.5625 C-2.48144775 9.51545898 -2.48144775 9.51545898 -2.65380859 8.44726562 C-3.33153732 3.4488642 -3.33153732 3.4488642 -1.54296875 1.02734375 C-1.03378906 0.68832031 -0.52460938 0.34929687 0 0 Z " fill="#000000" transform="translate(262,165)"/>
<path d="M0 0 C2.19816927 4.39633854 2.19816927 4.39633854 1.31817627 7.07696533 C-0.35102697 9.51209922 -1.38226143 9.791114 -4.21582031 10.51855469 C-5.11772095 10.7581189 -6.01962158 10.99768311 -6.94885254 11.24450684 C-7.9557312 11.49381958 -8.96260986 11.74313232 -10 12 C-11.07423218 12.27992798 -12.14846436 12.55985596 -13.25524902 12.8482666 C-17.014106 13.82040961 -20.77958402 14.76438665 -24.546875 15.703125 C-25.97857295 16.06155885 -27.41023292 16.42014446 -28.84185791 16.77886963 C-32.68122783 17.74005885 -36.52142981 18.69788159 -40.36187744 19.65475464 C-42.7565645 20.25163622 -45.15101861 20.84944394 -47.54541016 21.44750977 C-76.82187004 28.75856508 -106.13683418 35.90596418 -135.47955322 42.94610596 C-139.85367744 43.99634546 -144.22482256 45.05221278 -148.58447266 46.16113281 C-152.68668221 47.1686519 -155.8053183 47.28928839 -160 47 C-162 45 -162 45 -162.4375 42.0625 C-162 39 -162 39 -160.06591797 37.46813965 C-155.99065139 35.51666524 -151.88932817 34.50223826 -147.5078125 33.44726562 C-146.55524063 33.21090393 -145.60266876 32.97454224 -144.62123108 32.73101807 C-141.45771667 31.94817181 -138.2914317 31.17720408 -135.125 30.40625 C-132.88564779 29.85467636 -130.64647454 29.30237574 -128.4074707 28.74938965 C-122.4753255 27.28640473 -116.54076156 25.8334728 -110.60565186 24.38256836 C-104.74732795 22.94860537 -98.89133145 21.50520814 -93.03515625 20.0625 C-86.12262435 18.36001266 -79.20946273 16.66025116 -72.29345703 14.97192383 C-62.19308627 12.50595018 -52.0952047 10.03347655 -42.01472473 7.48719025 C-37.83052292 6.43092408 -33.64408522 5.3836892 -29.45742798 4.33720398 C-27.50734212 3.84698102 -25.55839097 3.35221883 -23.61068726 2.85261536 C-20.94113923 2.16814615 -18.26809385 1.49942586 -15.59375 0.83398438 C-14.43363152 0.52967751 -14.43363152 0.52967751 -13.25007629 0.21922302 C-8.44495169 -0.95555578 -4.85365682 -1.00684583 0 0 Z " fill="#000000" transform="translate(274,127)"/>
<path d="M0 0 C2 2 2 2 2.4375 4.9375 C2.293125 5.948125 2.14875 6.95875 2 8 C-1.23492674 10.3455491 -4.32397372 11.54727585 -8.17852783 12.49726868 C-9.20104141 12.75356049 -10.22355499 13.00985229 -11.27705383 13.27391052 C-12.94443855 13.67840172 -12.94443855 13.67840172 -14.64550781 14.09106445 C-15.82527695 14.38422546 -17.00504608 14.67738647 -18.2205658 14.97943115 C-21.45389099 15.78112483 -24.68886932 16.57539894 -27.92481709 17.36639428 C-31.33786711 18.20250998 -34.74859856 19.04798138 -38.15960693 19.89237976 C-43.90830322 21.3141198 -49.65844266 22.72988407 -55.40966797 24.14135742 C-63.43019343 26.10976624 -71.44821317 28.08821994 -79.46566629 30.06910002 C-107.70260828 37.04426183 -107.70260828 37.04426183 -120.97473145 40.27700806 C-125.70802955 41.43134889 -130.43248338 42.6156818 -135.15319824 43.82040405 C-137.40648596 44.38575445 -139.65978149 44.95107369 -141.91308594 45.51635742 C-142.93304783 45.78302121 -143.95300972 46.049685 -145.00387955 46.32442951 C-150.41240638 47.66688443 -154.55303806 48.36237769 -160 47 C-161 46 -161 46 -161.25 43.125 C-161 40 -161 40 -159.84931946 38.41238403 C-157.38788876 36.53251119 -155.16827111 36.01881621 -152.16088867 35.27685547 C-150.94306198 34.97097504 -149.72523529 34.6650946 -148.47050476 34.34994507 C-147.11971344 34.02213656 -145.76886621 33.69455835 -144.41796875 33.3671875 C-142.99817798 33.01501476 -141.57861201 32.66193469 -140.15925598 32.30801392 C-136.30787264 31.35059916 -132.45331668 30.40658179 -128.59802246 29.46505737 C-124.56676841 28.47827081 -120.53849152 27.47946915 -116.50976562 26.48242188 C-106.34429544 23.97003473 -96.17267749 21.48301667 -86 19 C-84.30275214 18.58550047 -82.60550685 18.17099043 -80.90826416 17.75646973 C-62.52440602 13.26753198 -44.13585928 8.79807679 -25.73994446 4.35879517 C-20.92347932 3.1957952 -16.10816983 2.03294511 -11.30615234 0.81152344 C-7.25501532 -0.18286288 -4.14487802 -0.28585366 0 0 Z " fill="#000000" transform="translate(400,258)"/>
<path d="M0 0 C2 3 2 3 1.625 6.1875 C1.41875 7.115625 1.2125 8.04375 1 9 C-7.42718423 12.26871445 -15.97853639 14.74134578 -24.7109375 17.046875 C-26.12802355 17.42509175 -27.54498237 17.80378547 -28.96182251 18.18292236 C-32.68128512 19.17704543 -36.40222927 20.16549852 -40.12359619 21.15246582 C-45.99220693 22.71002537 -51.85836907 24.27679216 -57.72483063 25.84242249 C-59.89229562 26.42023766 -62.06022051 26.99630148 -64.22821045 27.57214355 C-71.30540812 29.45515337 -78.37092868 31.37166736 -85.41894531 33.36132812 C-86.08959078 33.5498447 -86.76023624 33.73836128 -87.4512043 33.93259048 C-90.61135047 34.82101927 -93.76906147 35.71655051 -96.92318726 36.62615967 C-98.03344269 36.93934143 -99.14369812 37.25252319 -100.28759766 37.57519531 C-101.25073883 37.85147766 -102.21388 38.12776001 -103.20620728 38.41241455 C-106.93092244 39.19578993 -110.55089287 39.91776785 -113.875 37.8125 C-115.42229478 35.31963619 -115.50405716 33.88032665 -115 31 C-111.98812059 28.19785632 -109.00440534 27.22276143 -105.07446289 26.16577148 C-103.27020088 25.67349815 -103.27020088 25.67349815 -101.42948914 25.17127991 C-100.11058722 24.8210582 -98.79164165 24.47100089 -97.47265625 24.12109375 C-96.09795778 23.74939529 -94.72347546 23.37689664 -93.34919739 23.00364685 C-89.67995204 22.00946049 -86.00787695 21.02615202 -82.33504486 20.04531097 C-78.55343249 19.03388738 -74.77412695 18.01391936 -70.99462891 16.99462891 C-66.4970913 15.782261 -61.99928577 14.57092855 -57.50018311 13.36437988 C-49.21521353 11.14195317 -40.93940543 8.89067273 -32.67578125 6.58984375 C-30.16759459 5.895312 -27.65923855 5.2013952 -25.15084839 4.50759888 C-23.64971617 4.09034149 -22.14946539 3.66989811 -20.650177 3.24606323 C-6.20056086 -0.83381625 -6.20056086 -0.83381625 0 0 Z " fill="#000000" transform="translate(384,347)"/>
<path d="M0 0 C2 2 2 2 2.3125 4.9375 C2 8 2 8 0.75299072 9.60127258 C-1.27459756 11.21910392 -2.85922768 11.77275786 -5.36035156 12.44213867 C-6.67752167 12.80217232 -6.67752167 12.80217232 -8.02130127 13.16947937 C-9.44161652 13.53998161 -9.44161652 13.53998161 -10.890625 13.91796875 C-12.3575882 14.31113029 -12.3575882 14.31113029 -13.85418701 14.7122345 C-15.92408865 15.26424469 -17.99536291 15.81112956 -20.06787109 16.35327148 C-23.22759154 17.18162539 -26.38144151 18.02996259 -29.53515625 18.88085938 C-31.54915826 19.41527333 -33.56347184 19.94851476 -35.578125 20.48046875 C-36.51690491 20.73354294 -37.45568481 20.98661713 -38.4229126 21.24736023 C-43.4082586 22.5378313 -47.84570295 23.4896159 -53 23 C-55 21 -55 21 -55.4375 18.0625 C-55 15 -55 15 -53.09155273 13.4909668 C-48.88808512 11.46375549 -44.59500692 10.29235062 -40.09765625 9.08203125 C-38.66467445 8.68886971 -38.66467445 8.68886971 -37.20274353 8.2877655 C-35.18737039 7.73700745 -33.17094846 7.1900747 -31.15356445 6.64672852 C-28.07376744 5.8155409 -24.99873605 4.96821356 -21.92382812 4.11914062 C-19.96120311 3.58496065 -17.99832058 3.05172575 -16.03515625 2.51953125 C-15.11936295 2.26645706 -14.20356964 2.01338287 -13.26002502 1.75263977 C-8.78422467 0.55867754 -4.67263329 -0.52841723 0 0 Z " fill="#000000" transform="translate(459,326)"/>
</svg>
